<svg width="18" height="14" viewBox="0 0 18 14" fill="none" xmlns="http://www.w3.org/2000/svg">
<path d="M1.56322 4.8854C1.02122 5.1129 0.684804 5.5179 0.679721 6.09123C0.676221 6.49206 0.94672 7.03041 1.48872 7.25041C1.71197 7.34125 4.84655 7.76291 4.84655 7.76291C4.84655 7.76291 5.67622 10.3854 5.97522 11.3071C6.0618 11.5737 6.11114 11.7046 6.30114 11.8787C6.62347 12.1737 7.16839 12.0813 7.40405 11.8446C8.02755 11.2196 9.01305 10.2554 9.01305 10.2554L9.4278 10.5929C9.4278 10.5929 11.2696 12.0621 12.2763 12.7537C12.8691 13.1612 13.2805 13.5862 13.9476 13.5887C14.2875 13.5904 14.8326 13.4212 15.1929 13.0087C15.431 12.7362 15.5837 12.3004 15.6428 11.9096C15.7771 11.0221 17.3531 1.42541 17.3464 1.08957C17.3357 0.553738 16.885 0.252065 16.5103 0.255398C16.275 0.257898 16.0811 0.326241 15.6496 0.457908C12.3117 1.47708 1.7843 4.7929 1.56322 4.8854ZM14.0131 2.7554C14.0131 2.7554 9.61472 6.58374 7.85714 8.34541C7.29405 8.90958 7.2543 9.8779 7.2543 9.8779L6.34581 6.97123L14.0131 2.7554Z" fill="#EEEEEE"/>
</svg>
